# xmcd
#
# Track frame offsets: 
#        150
#        15639
#        25987
#        37575
#        54753
#        70658
#        82061
#        100992
#        113025
#        132984
#        142840
#        154623
#        167956
#
# Disc length: 2400 seconds
#
# Revision: 0
# Processed by: cddbd v1.5.2PL0 Copyright (c) Steve Scherf et al.
# Submitted via: ExactAudioCopyFreeDBPlugin 1.0
#
DISCID=9a095e0d
DTITLE=Kip Loui - The Hill Recordings with JJ Loui
DYEAR=2015
DGENRE=Country
TTITLE0=Equil Measures
TTITLE1=Middle Of Nowhere
TTITLE2=Get Up, Get Busy
TTITLE3=Getting On
TTITLE4=For Sale By Owner
TTITLE5=Little Max
TTITLE6=Here Now
TTITLE7=Baloney In Disquise
TTITLE8=Ruby Red
TTITLE9=These Things Matter In Life
TTITLE10=Sitting Alone In The Moonlight
TTITLE11=Tombstone Blues Revisited
TTITLE12=Get Up, Get Busy (Mark Spencer Remix)
EXTD=
EXTT0=
EXTT1=
EXTT2=
EXTT3=
EXTT4=
EXTT5=
EXTT6=
EXTT7=
EXTT8=
EXTT9=
EXTT10=
EXTT11=
EXTT12=
PLAYORDER=
